<svg viewBox="0 0 330 200" xmlns="http://www.w3.org/2000/svg"><g><g><g><g><g><line x1="63.984375" y1="177" x2="58.984375" y2="177" style="visibility: inherit;" fill="rgb(0, 0, 0)" stroke="rgb(204, 204, 204)" stroke-width="1px"></line><line x1="63.984375" y1="164.35714285714283" x2="58.984375" y2="164.35714285714283" style="visibility: inherit;" fill="rgb(0, 0, 0)" stroke="rgb(204, 204, 204)" stroke-width="1px"></line><line x1="63.984375" y1="151.7142857142857" x2="58.984375" y2="151.7142857142857" style="visibility: inherit;" fill="rgb(0, 0, 0)" stroke="rgb(204, 204, 204)" stroke-width="1px"></line><line x1="63.984375" y1="139.0714285714285" x2="58.984375" y2="139.0714285714285" style="visibility: inherit;" fill="rgb(0, 0, 0)" stroke="rgb(204, 204, 204)" stroke-width="1px"></line><line x1="63.984375" y1="126.42857142857136" x2="58.984375" y2="126.42857142857136" style="visibility: inherit;" fill="rgb(0, 0, 0)" stroke="rgb(204, 204, 204)" stroke-width="1px"></line><line x1="63.984375" y1="113.78571428571419" x2="58.984375" y2="113.78571428571419" style="visibility: inherit;" fill="rgb(0, 0, 0)" stroke="rgb(204, 204, 204)" stroke-width="1px"></line><line x1="63.984375" y1="101.14285714285703" x2="58.984375" y2="101.14285714285703" style="visibility: inherit;" fill="rgb(0, 0, 0)" stroke="rgb(204, 204, 204)" stroke-width="1px"></line><line x1="63.984375" y1="88.49999999999986" x2="58.984375" y2="88.49999999999986" style="visibility: inherit;" fill="rgb(0, 0, 0)" stroke="rgb(204, 204, 204)" stroke-width="1px"></line><line x1="63.984375" y1="75.8571428571427" x2="58.984375" y2="75.8571428571427" style="visibility: inherit;" fill="rgb(0, 0, 0)" stroke="rgb(204, 204, 204)" stroke-width="1px"></line><line x1="63.984375" y1="63.21428571428553" x2="58.984375" y2="63.21428571428553" style="visibility: inherit;" fill="rgb(0, 0, 0)" stroke="rgb(204, 204, 204)" stroke-width="1px"></line><line x1="63.984375" y1="50.57142857142837" x2="58.984375" y2="50.57142857142837" style="visibility: inherit;" fill="rgb(0, 0, 0)" stroke="rgb(204, 204, 204)" stroke-width="1px"></line><line x1="63.984375" y1="37.92857142857122" x2="58.984375" y2="37.92857142857122" style="visibility: inherit;" fill="rgb(0, 0, 0)" stroke="rgb(204, 204, 204)" stroke-width="1px"></line><line x1="63.984375" y1="25.28571428571404" x2="58.984375" y2="25.28571428571404" style="visibility: inherit;" fill="rgb(0, 0, 0)" stroke="rgb(204, 204, 204)" stroke-width="1px"></line><line x1="63.984375" y1="12.642857142857157" x2="58.984375" y2="12.642857142857157" style="visibility: inherit;" fill="rgb(0, 0, 0)" stroke="rgb(204, 204, 204)" stroke-width="1px"></line><line x1="63.984375" y1="0" x2="58.984375" y2="0" style="visibility: inherit;" fill="rgb(0, 0, 0)" stroke="rgb(204, 204, 204)" stroke-width="1px"></line></g><g transform="translate(53.984375, 0)"><text x="0" y="177" dx="0em" dy="0.3em" style="text-anchor: end; visibility: hidden; font-family: Roboto, sans-serif; font-size: 12px; font-weight: 200;" fill="rgb(50, 49, 63)" stroke="none" stroke-width="1px">0.875</text><text x="0" y="164.35714285714283" dx="0em" dy="0.3em" style="text-anchor: end; visibility: inherit; font-family: Roboto, sans-serif; font-size: 12px; font-weight: 200;" fill="rgb(50, 49, 63)" stroke="none" stroke-width="1px">0.88</text><text x="0" y="151.7142857142857" dx="0em" dy="0.3em" style="text-anchor: end; visibility: hidden; font-family: Roboto, sans-serif; font-size: 12px; font-weight: 200;" fill="rgb(50, 49, 63)" stroke="none" stroke-width="1px">0.885</text><text x="0" y="139.0714285714285" dx="0em" dy="0.3em" style="text-anchor: end; visibility: inherit; font-family: Roboto, sans-serif; font-size: 12px; font-weight: 200;" fill="rgb(50, 49, 63)" stroke="none" stroke-width="1px">0.89</text><text x="0" y="126.42857142857136" dx="0em" dy="0.3em" style="text-anchor: end; visibility: hidden; font-family: Roboto, sans-serif; font-size: 12px; font-weight: 200;" fill="rgb(50, 49, 63)" stroke="none" stroke-width="1px">0.895</text><text x="0" y="113.78571428571419" dx="0em" dy="0.3em" style="text-anchor: end; visibility: inherit; font-family: Roboto, sans-serif; font-size: 12px; font-weight: 200;" fill="rgb(50, 49, 63)" stroke="none" stroke-width="1px">0.9</text><text x="0" y="101.14285714285703" dx="0em" dy="0.3em" style="text-anchor: end; visibility: hidden; font-family: Roboto, sans-serif; font-size: 12px; font-weight: 200;" fill="rgb(50, 49, 63)" stroke="none" stroke-width="1px">0.905</text><text x="0" y="88.49999999999986" dx="0em" dy="0.3em" style="text-anchor: end; visibility: inherit; font-family: Roboto, sans-serif; font-size: 12px; font-weight: 200;" fill="rgb(50, 49, 63)" stroke="none" stroke-width="1px">0.91</text><text x="0" y="75.8571428571427" dx="0em" dy="0.3em" style="text-anchor: end; visibility: hidden; font-family: Roboto, sans-serif; font-size: 12px; font-weight: 200;" fill="rgb(50, 49, 63)" stroke="none" stroke-width="1px">0.915</text><text x="0" y="63.21428571428553" dx="0em" dy="0.3em" style="text-anchor: end; visibility: inherit; font-family: Roboto, sans-serif; font-size: 12px; font-weight: 200;" fill="rgb(50, 49, 63)" stroke="none" stroke-width="1px">0.92</text><text x="0" y="50.57142857142837" dx="0em" dy="0.3em" style="text-anchor: end; visibility: hidden; font-family: Roboto, sans-serif; font-size: 12px; font-weight: 200;" fill="rgb(50, 49, 63)" stroke="none" stroke-width="1px">0.925</text><text x="0" y="37.92857142857122" dx="0em" dy="0.3em" style="text-anchor: end; visibility: inherit; font-family: Roboto, sans-serif; font-size: 12px; font-weight: 200;" fill="rgb(50, 49, 63)" stroke="none" stroke-width="1px">0.93</text><text x="0" y="25.28571428571404" dx="0em" dy="0.3em" style="text-anchor: end; visibility: hidden; font-family: Roboto, sans-serif; font-size: 12px; font-weight: 200;" fill="rgb(50, 49, 63)" stroke="none" stroke-width="1px">0.935</text><text x="0" y="12.642857142857157" dx="0em" dy="0.3em" style="text-anchor: end; visibility: inherit; font-family: Roboto, sans-serif; font-size: 12px; font-weight: 200;" fill="rgb(50, 49, 63)" stroke="none" stroke-width="1px">0.94</text><text x="0" y="0" dx="0em" dy="0.3em" style="text-anchor: end; visibility: hidden; font-family: Roboto, sans-serif; font-size: 12px; font-weight: 200;" fill="rgb(50, 49, 63)" stroke="none" stroke-width="1px">0.945</text></g><line x1="63.984375" y1="0" x2="63.984375" y2="177" fill="rgb(0, 0, 0)" stroke="rgb(204, 204, 204)" stroke-width="1px"></line></g></g><g transform="translate(63, 0)" clip-path="url(#clip_0)"><clipPath id="clip_0"><rect width="266" height="177"></rect></clipPath><g><g><g><line x1="0" y1="0" x2="0" y2="177" fill="rgb(0, 0, 0)" stroke="rgb(60, 60, 60)" stroke-width="1px" opacity="0.25"></line><line x1="22.16796875" y1="0" x2="22.16796875" y2="177" fill="rgb(0, 0, 0)" stroke="rgb(60, 60, 60)" stroke-width="1px" opacity="0.25"></line><line x1="44.3359375" y1="0" x2="44.3359375" y2="177" fill="rgb(0, 0, 0)" stroke="rgb(60, 60, 60)" stroke-width="1px" opacity="0.25"></line><line x1="66.50390625" y1="0" x2="66.50390625" y2="177" fill="rgb(0, 0, 0)" stroke="rgb(60, 60, 60)" stroke-width="1px" opacity="0.25"></line><line x1="88.671875" y1="0" x2="88.671875" y2="177" fill="rgb(0, 0, 0)" stroke="rgb(60, 60, 60)" stroke-width="1px" opacity="0.25"></line><line x1="110.83984375" y1="0" x2="110.83984375" y2="177" fill="rgb(0, 0, 0)" stroke="rgb(60, 60, 60)" stroke-width="1px" opacity="0.25"></line><line x1="133.0078125" y1="0" x2="133.0078125" y2="177" fill="rgb(0, 0, 0)" stroke="rgb(60, 60, 60)" stroke-width="1px" opacity="0.25"></line><line x1="155.17578125" y1="0" x2="155.17578125" y2="177" fill="rgb(0, 0, 0)" stroke="rgb(60, 60, 60)" stroke-width="1px" opacity="0.25"></line><line x1="177.34375" y1="0" x2="177.34375" y2="177" fill="rgb(0, 0, 0)" stroke="rgb(60, 60, 60)" stroke-width="1px" opacity="0.25"></line><line x1="199.51171875" y1="0" x2="199.51171875" y2="177" fill="rgb(0, 0, 0)" stroke="rgb(60, 60, 60)" stroke-width="1px" opacity="0.25"></line><line x1="221.6796875" y1="0" x2="221.6796875" y2="177" fill="rgb(0, 0, 0)" stroke="rgb(60, 60, 60)" stroke-width="1px" opacity="0.25"></line><line x1="243.84765625" y1="0" x2="243.84765625" y2="177" fill="rgb(0, 0, 0)" stroke="rgb(60, 60, 60)" stroke-width="1px" opacity="0.25"></line><line x1="266.015625" y1="0" x2="266.015625" y2="177" fill="rgb(0, 0, 0)" stroke="rgb(60, 60, 60)" stroke-width="1px" opacity="0.25"></line></g><g><line x1="0" y1="177" x2="266.015625" y2="177" fill="rgb(0, 0, 0)" stroke="rgb(60, 60, 60)" stroke-width="1px" opacity="0.25"></line><line x1="0" y1="164.35714285714283" x2="266.015625" y2="164.35714285714283" fill="rgb(0, 0, 0)" stroke="rgb(60, 60, 60)" stroke-width="1px" opacity="0.25"></line><line x1="0" y1="151.7142857142857" x2="266.015625" y2="151.7142857142857" fill="rgb(0, 0, 0)" stroke="rgb(60, 60, 60)" stroke-width="1px" opacity="0.25"></line><line x1="0" y1="139.0714285714285" x2="266.015625" y2="139.0714285714285" fill="rgb(0, 0, 0)" stroke="rgb(60, 60, 60)" stroke-width="1px" opacity="0.25"></line><line x1="0" y1="126.42857142857136" x2="266.015625" y2="126.42857142857136" fill="rgb(0, 0, 0)" stroke="rgb(60, 60, 60)" stroke-width="1px" opacity="0.25"></line><line x1="0" y1="113.78571428571419" x2="266.015625" y2="113.78571428571419" fill="rgb(0, 0, 0)" stroke="rgb(60, 60, 60)" stroke-width="1px" opacity="0.25"></line><line x1="0" y1="101.14285714285703" x2="266.015625" y2="101.14285714285703" fill="rgb(0, 0, 0)" stroke="rgb(60, 60, 60)" stroke-width="1px" opacity="0.25"></line><line x1="0" y1="88.49999999999986" x2="266.015625" y2="88.49999999999986" fill="rgb(0, 0, 0)" stroke="rgb(60, 60, 60)" stroke-width="1px" opacity="0.25"></line><line x1="0" y1="75.8571428571427" x2="266.015625" y2="75.8571428571427" fill="rgb(0, 0, 0)" stroke="rgb(60, 60, 60)" stroke-width="1px" opacity="0.25"></line><line x1="0" y1="63.21428571428553" x2="266.015625" y2="63.21428571428553" fill="rgb(0, 0, 0)" stroke="rgb(60, 60, 60)" stroke-width="1px" opacity="0.25"></line><line x1="0" y1="50.57142857142837" x2="266.015625" y2="50.57142857142837" fill="rgb(0, 0, 0)" stroke="rgb(60, 60, 60)" stroke-width="1px" opacity="0.25"></line><line x1="0" y1="37.92857142857122" x2="266.015625" y2="37.92857142857122" fill="rgb(0, 0, 0)" stroke="rgb(60, 60, 60)" stroke-width="1px" opacity="0.25"></line><line x1="0" y1="25.28571428571404" x2="266.015625" y2="25.28571428571404" fill="rgb(0, 0, 0)" stroke="rgb(60, 60, 60)" stroke-width="1px" opacity="0.25"></line><line x1="0" y1="12.642857142857157" x2="266.015625" y2="12.642857142857157" fill="rgb(0, 0, 0)" stroke="rgb(60, 60, 60)" stroke-width="1px" opacity="0.25"></line><line x1="0" y1="0" x2="266.015625" y2="0" fill="rgb(0, 0, 0)" stroke="rgb(60, 60, 60)" stroke-width="1px" opacity="0.25"></line></g></g></g><g><g><line x1="0" y1="2389.5000000000014" x2="266.015625" y2="2389.5000000000014" fill="rgb(0, 0, 0)" stroke="rgb(153, 153, 153)" stroke-width="1.5px"></line></g></g><g><g><line x1="22.16796875" y1="0" x2="22.16796875" y2="177" fill="rgb(0, 0, 0)" stroke="rgb(153, 153, 153)" stroke-width="1.5px"></line></g></g><g><g><g><g><g><path stroke="rgb(255, 112, 67)" stroke-width="2px" d="M31.03515625,191.7598808082828L35.46875,148.24563487825785L39.90234375,129.86584384994225L44.3359375,108.72540564763925L48.76953125,97.80436489210265L53.203125,84.84409820695514L57.63671875,82.13002841251681L62.0703125,76.43467108700605L66.50390625,75.21268727338617L70.9375,67.9724912101819L75.37109375,59.302417961330896L79.8046875,63.58789072764768L84.23828125,61.012162544922795L88.671875,54.05296808673942L93.10546875,52.044300931969126L97.5390625,45.69635344319557L101.97265625,42.42933713216847L106.40625,43.71721289386749L110.83984375,49.90309260130791L115.2734375,44.9535145586669L119.70703125,48.47953949178991L124.140625,46.53534830778427L128.57421875,44.286223287800304L133.0078125,41.58345350732097L137.44140625,42.93901388061095L141.875,48.624050996565096L146.30859375,40.938312528433784L150.7421875,36.32687125994611L155.17578125,43.3035265918867L159.609375,40.181910149005866L164.04296875,43.722006338623665L168.4765625,41.786234456570334L172.91015625,42.5193745115751L177.34375,44.04187167525049L181.77734375,40.354233999828026L186.2109375,42.20148079557182L190.64453125,37.626079793290955L195.078125,35.96345232746517L199.51171875,38.75502179893479L203.9453125,43.4071797255595L208.37890625,39.70279571279271L212.8125,40.72800468909699L217.24609375,37.824607266870046L221.6796875,33.376096280468346L226.11328125,37.20260816864038L230.546875,31.649600269297494L234.98046875,33.46017774288846L239.4140625,32.381297971865806" style="fill: none;" fill="none"></path></g></g></g></g><g opacity="0.2"><g><g><g><path stroke="rgb(255, 112, 67)" stroke-width="2px" d="M22.16796875,393.43747176442844L26.6015625,168.79585065160478L31.03515625,132.93436615807667L35.46875,97.07288166454855L39.90234375,105.86918868337354L44.3359375,79.48056905610214L48.76953125,82.18710187503264L53.203125,65.9479049614497L57.63671875,78.12730264663688L62.0703125,67.97772921834667L66.50390625,73.39079485620765L70.9375,57.1515979426247L75.37109375,46.32561738150452L79.8046875,70.00770418984543L84.23828125,57.1515979426247L88.671875,43.61908456257402L93.10546875,49.032150200435L97.5390625,36.176043953214275L101.97265625,37.529310362679524L106.40625,45.64890881947099L110.83984375,59.18157291412346L115.2734375,37.529310362679524L119.70703125,53.768507276262476L124.140625,43.61908456257402L128.57421875,40.91255174364354L133.0078125,37.529310362679524L137.44140625,44.972350972039266L141.875,57.1515979426247L146.30859375,29.409711905888045L150.7421875,29.409711905888045L155.17578125,53.768507276262476L159.609375,35.49948610578255L164.04296875,49.032150200435L168.4765625,38.88257677214476L172.91015625,43.61908456257402L177.34375,46.32561738150452L181.77734375,34.82277754374903L186.2109375,44.972350972039266L190.64453125,30.762978315353294L195.078125,33.46951113428378L199.51171875,42.94237600054051L203.9453125,50.385416609900254L208.37890625,34.1462196963173L212.8125,42.26581815310877L217.24609375,33.46951113428378L221.6796875,26.70332980155935L226.11328125,42.94237600054051L230.546875,23.32008842059534L234.98046875,36.176043953214275L239.4140625,30.762978315353294" style="fill: none;" fill="none"></path></g></g></g></g></g></g><g transform="translate(63, 177)" clip-path="url(#clip_1)"><clipPath id="clip_1"><rect width="266" height="23"></rect></clipPath><g><g><line x1="0" y1="0" x2="0" y2="5" style="visibility: inherit;" fill="rgb(0, 0, 0)" stroke="rgb(204, 204, 204)" stroke-width="1px"></line><line x1="22.16796875" y1="0" x2="22.16796875" y2="5" style="visibility: inherit;" fill="rgb(0, 0, 0)" stroke="rgb(204, 204, 204)" stroke-width="1px"></line><line x1="44.3359375" y1="0" x2="44.3359375" y2="5" style="visibility: inherit;" fill="rgb(0, 0, 0)" stroke="rgb(204, 204, 204)" stroke-width="1px"></line><line x1="66.50390625" y1="0" x2="66.50390625" y2="5" style="visibility: inherit;" fill="rgb(0, 0, 0)" stroke="rgb(204, 204, 204)" stroke-width="1px"></line><line x1="88.671875" y1="0" x2="88.671875" y2="5" style="visibility: inherit;" fill="rgb(0, 0, 0)" stroke="rgb(204, 204, 204)" stroke-width="1px"></line><line x1="110.83984375" y1="0" x2="110.83984375" y2="5" style="visibility: inherit;" fill="rgb(0, 0, 0)" stroke="rgb(204, 204, 204)" stroke-width="1px"></line><line x1="133.0078125" y1="0" x2="133.0078125" y2="5" style="visibility: inherit;" fill="rgb(0, 0, 0)" stroke="rgb(204, 204, 204)" stroke-width="1px"></line><line x1="155.17578125" y1="0" x2="155.17578125" y2="5" style="visibility: inherit;" fill="rgb(0, 0, 0)" stroke="rgb(204, 204, 204)" stroke-width="1px"></line><line x1="177.34375" y1="0" x2="177.34375" y2="5" style="visibility: inherit;" fill="rgb(0, 0, 0)" stroke="rgb(204, 204, 204)" stroke-width="1px"></line><line x1="199.51171875" y1="0" x2="199.51171875" y2="5" style="visibility: inherit;" fill="rgb(0, 0, 0)" stroke="rgb(204, 204, 204)" stroke-width="1px"></line><line x1="221.6796875" y1="0" x2="221.6796875" y2="5" style="visibility: inherit;" fill="rgb(0, 0, 0)" stroke="rgb(204, 204, 204)" stroke-width="1px"></line><line x1="243.84765625" y1="0" x2="243.84765625" y2="5" style="visibility: inherit;" fill="rgb(0, 0, 0)" stroke="rgb(204, 204, 204)" stroke-width="1px"></line><line x1="266.015625" y1="0" x2="266.015625" y2="5" style="visibility: inherit;" fill="rgb(0, 0, 0)" stroke="rgb(204, 204, 204)" stroke-width="1px"></line></g><g transform="translate(0, 8)"><text x="0" y="0" dx="0em" dy="0.95em" style="text-anchor: middle; visibility: hidden; font-family: Roboto, sans-serif; font-size: 12px; font-weight: 200;" fill="rgb(50, 49, 63)" stroke="none" stroke-width="1px">-5</text><text x="22.16796875" y="0" dx="0em" dy="0.95em" style="text-anchor: middle; visibility: inherit; font-family: Roboto, sans-serif; font-size: 12px; font-weight: 200;" fill="rgb(50, 49, 63)" stroke="none" stroke-width="1px">0</text><text x="44.3359375" y="0" dx="0em" dy="0.95em" style="text-anchor: middle; visibility: inherit; font-family: Roboto, sans-serif; font-size: 12px; font-weight: 200;" fill="rgb(50, 49, 63)" stroke="none" stroke-width="1px">5</text><text x="66.50390625" y="0" dx="0em" dy="0.95em" style="text-anchor: middle; visibility: inherit; font-family: Roboto, sans-serif; font-size: 12px; font-weight: 200;" fill="rgb(50, 49, 63)" stroke="none" stroke-width="1px">10</text><text x="88.671875" y="0" dx="0em" dy="0.95em" style="text-anchor: middle; visibility: inherit; font-family: Roboto, sans-serif; font-size: 12px; font-weight: 200;" fill="rgb(50, 49, 63)" stroke="none" stroke-width="1px">15</text><text x="110.83984375" y="0" dx="0em" dy="0.95em" style="text-anchor: middle; visibility: inherit; font-family: Roboto, sans-serif; font-size: 12px; font-weight: 200;" fill="rgb(50, 49, 63)" stroke="none" stroke-width="1px">20</text><text x="133.0078125" y="0" dx="0em" dy="0.95em" style="text-anchor: middle; visibility: inherit; font-family: Roboto, sans-serif; font-size: 12px; font-weight: 200;" fill="rgb(50, 49, 63)" stroke="none" stroke-width="1px">25</text><text x="155.17578125" y="0" dx="0em" dy="0.95em" style="text-anchor: middle; visibility: inherit; font-family: Roboto, sans-serif; font-size: 12px; font-weight: 200;" fill="rgb(50, 49, 63)" stroke="none" stroke-width="1px">30</text><text x="177.34375" y="0" dx="0em" dy="0.95em" style="text-anchor: middle; visibility: inherit; font-family: Roboto, sans-serif; font-size: 12px; font-weight: 200;" fill="rgb(50, 49, 63)" stroke="none" stroke-width="1px">35</text><text x="199.51171875" y="0" dx="0em" dy="0.95em" style="text-anchor: middle; visibility: inherit; font-family: Roboto, sans-serif; font-size: 12px; font-weight: 200;" fill="rgb(50, 49, 63)" stroke="none" stroke-width="1px">40</text><text x="221.6796875" y="0" dx="0em" dy="0.95em" style="text-anchor: middle; visibility: inherit; font-family: Roboto, sans-serif; font-size: 12px; font-weight: 200;" fill="rgb(50, 49, 63)" stroke="none" stroke-width="1px">45</text><text x="243.84765625" y="0" dx="0em" dy="0.95em" style="text-anchor: middle; visibility: inherit; font-family: Roboto, sans-serif; font-size: 12px; font-weight: 200;" fill="rgb(50, 49, 63)" stroke="none" stroke-width="1px">50</text><text x="266.015625" y="0" dx="0em" dy="0.95em" style="text-anchor: middle; visibility: hidden; font-family: Roboto, sans-serif; font-size: 12px; font-weight: 200;" fill="rgb(50, 49, 63)" stroke="none" stroke-width="1px">55</text></g><line x1="0" y1="0" x2="266.015625" y2="0" fill="rgb(0, 0, 0)" stroke="rgb(204, 204, 204)" stroke-width="1px"></line></g></g></g></g></svg>